<?xml version="1.0" encoding="UTF-8" standalone="no"?>
<!-- Created with Inkscape (http://www.inkscape.org/) -->
<svg
   xmlns:dc="http://purl.org/dc/elements/1.1/"
   xmlns:cc="http://web.resource.org/cc/"
   xmlns:rdf="http://www.w3.org/1999/02/22-rdf-syntax-ns#"
   xmlns:svg="http://www.w3.org/2000/svg"
   xmlns="http://www.w3.org/2000/svg"
   xmlns:sodipodi="http://sodipodi.sourceforge.net/DTD/sodipodi-0.dtd"
   xmlns:inkscape="http://www.inkscape.org/namespaces/inkscape"
   width="594.96973"
   height="504.05594"
   id="svg2"
   sodipodi:version="0.32"
   inkscape:version="0.44"
   sodipodi:docbase="C:\Documents and Settings\moi\Bureau"
   sodipodi:docname="oahu blank map.svg"
   version="1.0">
  <defs
     id="defs4" />
  <sodipodi:namedview
     id="base"
     pagecolor="#ffffff"
     bordercolor="#666666"
     borderopacity="1.0"
     inkscape:pageopacity="0.0"
     inkscape:pageshadow="2"
     inkscape:zoom="0.98994949"
     inkscape:cx="273.69289"
     inkscape:cy="257.99898"
     inkscape:document-units="px"
     inkscape:current-layer="layer1"
     inkscape:window-width="1024"
     inkscape:window-height="712"
     inkscape:window-x="-4"
     inkscape:window-y="-4" />
  <metadata
     id="metadata7">
    <rdf:RDF>
      <cc:Work
         rdf:about="">
        <dc:format>image/svg+xml</dc:format>
        <dc:type
           rdf:resource="http://purl.org/dc/dcmitype/StillImage" />
      </cc:Work>
    </rdf:RDF>
  </metadata>
  <g
     inkscape:label="Calque 1"
     inkscape:groupmode="layer"
     id="layer1"
     transform="translate(-96.47465,-384.1513)">
    <rect
       style="opacity:1;color:black;fill:#d3ebfa;fill-opacity:1;fill-rule:evenodd;stroke:black;stroke-width:1;stroke-linecap:butt;stroke-linejoin:miter;marker:none;marker-start:none;marker-mid:none;marker-end:none;stroke-miterlimit:4;stroke-dasharray:none;stroke-dashoffset:0;stroke-opacity:1;visibility:visible;display:inline;overflow:visible"
       id="rect4775"
       width="593.96973"
       height="411.13208"
       x="96.974648"
       y="384.65134" />
    <rect
       style="opacity:1;color:black;fill:white;fill-opacity:1;fill-rule:evenodd;stroke:black;stroke-width:1.00084603;stroke-linecap:butt;stroke-linejoin:miter;marker:none;marker-start:none;marker-mid:none;marker-end:none;stroke-miterlimit:4;stroke-dasharray:none;stroke-dashoffset:0;stroke-opacity:1;visibility:visible;display:inline;overflow:visible"
       id="rect6561"
       width="593.96887"
       height="91.923035"
       x="96.975075"
       y="795.78381" />
    <path
       style="fill:none;fill-opacity:0.75;fill-rule:evenodd;stroke:black;stroke-width:1px;stroke-linecap:butt;stroke-linejoin:miter;stroke-opacity:1"
       d="M 108.08632,818.00679 L 162.63455,819.01694"
       id="path6549" />
    <path
       style="fill:none;fill-opacity:0.75;fill-rule:evenodd;stroke:black;stroke-width:1px;stroke-linecap:butt;stroke-linejoin:miter;stroke-opacity:1"
       d="M 108.08632,844.27076 L 178.797,844.27076"
       id="path6551" />
    <text
       xml:space="preserve"
       style="font-size:12px;font-style:normal;font-variant:normal;font-weight:normal;font-stretch:normal;text-align:center;line-height:125%;writing-mode:lr-tb;text-anchor:middle;fill:black;fill-opacity:1;stroke:none;stroke-width:1px;stroke-linecap:butt;stroke-linejoin:miter;stroke-opacity:1;font-family:Arial"
       x="134.35028"
       y="813.96619"
       id="text6553"
       sodipodi:linespacing="125%"><tspan
         sodipodi:role="line"
         id="tspan6555"
         x="134.35028"
         y="813.96619">5 Miles</tspan></text>
    <text
       xml:space="preserve"
       style="font-size:12px;font-style:normal;font-variant:normal;font-weight:normal;font-stretch:normal;text-align:center;line-height:125%;writing-mode:lr-tb;text-anchor:middle;fill:black;fill-opacity:1;stroke:none;stroke-width:1px;stroke-linecap:butt;stroke-linejoin:miter;stroke-opacity:1;font-family:Arial"
       x="130.30966"
       y="841.2403"
       id="text6557"
       sodipodi:linespacing="125%"><tspan
         sodipodi:role="line"
         id="tspan6559"
         x="130.30966"
         y="841.2403">10 Km</tspan></text>
    <rect
       style="opacity:1;color:black;fill:#ffdba9;fill-opacity:1;fill-rule:evenodd;stroke:black;stroke-width:1;stroke-linecap:butt;stroke-linejoin:miter;marker:none;marker-start:none;marker-mid:none;marker-end:none;stroke-miterlimit:4;stroke-dasharray:none;stroke-dashoffset:0;stroke-opacity:1;visibility:visible;display:inline;overflow:visible"
       id="rect10105"
       width="27.274118"
       height="15.152288"
       x="227.34473"
       y="843.53168" />
    <rect
       style="opacity:1;color:black;fill:#ffb757;fill-opacity:1;fill-rule:evenodd;stroke:black;stroke-width:1;stroke-linecap:butt;stroke-linejoin:miter;marker:none;marker-start:none;marker-mid:none;marker-end:none;stroke-miterlimit:4;stroke-dasharray:none;stroke-dashoffset:0;stroke-opacity:1;visibility:visible;display:inline;overflow:visible"
       id="rect10107"
       width="27.274118"
       height="15.152288"
       x="227.34473"
       y="821.93042" />
    <rect
       style="opacity:1;color:black;fill:#ff9200;fill-opacity:1;fill-rule:evenodd;stroke:black;stroke-width:1;stroke-linecap:butt;stroke-linejoin:miter;marker:none;marker-start:none;marker-mid:none;marker-end:none;stroke-miterlimit:4;stroke-dasharray:none;stroke-dashoffset:0;stroke-opacity:1;visibility:visible;display:inline;overflow:visible"
       id="rect10109"
       width="27.274118"
       height="15.152288"
       x="227.34473"
       y="800.3291" />
    <rect
       style="opacity:1;color:black;fill:#fff3e3;fill-opacity:1;fill-rule:evenodd;stroke:black;stroke-width:1;stroke-linecap:butt;stroke-linejoin:miter;marker:none;marker-start:none;marker-mid:none;marker-end:none;stroke-miterlimit:4;stroke-dasharray:none;stroke-dashoffset:0;stroke-opacity:1;visibility:visible;display:inline;overflow:visible"
       id="rect7448"
       width="27.274118"
       height="15.152288"
       x="227.34473"
       y="865.133" />
    <text
       xml:space="preserve"
       style="font-size:12px;font-style:normal;font-variant:normal;font-weight:normal;font-stretch:normal;text-align:center;line-height:125%;writing-mode:lr-tb;text-anchor:middle;fill:black;fill-opacity:1;stroke:none;stroke-width:1px;stroke-linecap:butt;stroke-linejoin:miter;stroke-opacity:1;font-family:Arial"
       x="288.67725"
       y="876.64795"
       id="text10116"
       sodipodi:linespacing="125%"><tspan
         sodipodi:role="line"
         id="tspan10118"
         x="288.67725"
         y="876.64795">0 à 300 m</tspan></text>
    <text
       xml:space="preserve"
       style="font-size:12px;font-style:normal;font-variant:normal;font-weight:normal;font-stretch:normal;text-align:center;line-height:125%;writing-mode:lr-tb;text-anchor:middle;fill:black;fill-opacity:1;stroke:none;stroke-width:1px;stroke-linecap:butt;stroke-linejoin:miter;stroke-opacity:1;font-family:Arial"
       x="295.35107"
       y="855.44391"
       id="text10120"
       sodipodi:linespacing="125%"><tspan
         sodipodi:role="line"
         id="tspan10122"
         x="295.35107"
         y="855.44391">300 à 600 m</tspan></text>
  </g>
  <g
     inkscape:groupmode="layer"
     id="layer2"
     inkscape:label="dessin"
     transform="translate(-96.47465,-384.1513)">
    <path
       style="opacity:1;fill:#fff3e3;fill-opacity:1;fill-rule:evenodd;stroke:black;stroke-width:1px;stroke-linecap:butt;stroke-linejoin:miter;stroke-opacity:1"
       d="M 366.79411,725.584 L 295.07328,742.75659 L 263.75855,745.78705 L 251.63672,709.42156 L 249.61642,696.28958 L 229.41337,663.9647 L 213.25093,656.89363 L 215.27123,643.76164 L 204.15955,626.58905 L 200.11894,617.49768 L 191.02757,609.41646 L 186.98696,609.41646 L 182.94635,601.33524 L 182.94635,596.28447 L 174.86513,592.24386 L 174.86513,551.83776 L 174.86513,544.76669 L 161.73315,529.61441 L 146.58086,518.50273 L 138.49964,513.45197 L 178.90574,507.39105 L 207.19001,507.39105 L 221.33215,511.43166 L 229.41337,509.41136 L 241.5352,508.4012 L 259.71794,508.4012 L 260.7281,504.36059 L 269.81947,499.30983 L 269.81947,493.24892 L 296.08344,467.9951 L 297.09359,462.94434 L 302.14435,461.93419 L 302.14435,456.88342 L 302.14435,447.79205 L 319.31694,431.62961 L 322.3474,426.57885 L 333.45908,419.50778 L 344.57076,412.43671 L 348.61137,412.43671 L 354.67228,407.38595 L 363.76366,403.34534 L 372.85503,405.36564 L 385.98701,415.46717 L 396.08854,430.61946 L 401.1393,433.64991 L 397.09869,439.71083 L 407.20022,443.75144 L 404.16976,450.82251 L 415.28144,454.86312 L 409.22052,471.02556 L 420.3322,486.17785 L 430.43372,496.27937 L 433.46418,503.35044 L 438.51494,512.44181 L 444.57586,516.48242 L 444.57586,532.64486 L 453.66723,529.61441 L 461.74845,530.62456 L 469.82967,540.72608 L 475.89059,550.82761 L 473.87028,566.99005 L 462.75861,572.04081 L 464.77891,584.16264 L 468.81952,596.28447 L 468.81952,608.40631 L 476.90074,611.43676 L 489.02257,616.48753 L 496.09364,624.56875 L 494.07333,629.61951 L 502.15456,640.73119 L 505.18501,633.66012 L 509.22562,638.71088 L 511.24593,649.82256 L 524.37791,646.7921 L 527.40837,638.71088 L 531.44898,631.63981 L 540.54035,628.60936 L 524.37791,621.53829 L 516.29669,621.53829 L 519.32715,616.48753 L 528.41852,608.40631 L 535.48959,615.47737 L 553.67233,611.43676 L 560.7434,613.45707 L 555.69264,621.53829 L 549.63172,623.55859 L 549.63172,632.64997 L 545.59111,639.72103 L 543.57081,649.82256 L 546.60127,658.91393 L 563.77386,663.9647 L 573.87539,678.10683 L 567.81447,689.21851 L 572.86523,704.3708 L 584.98706,719.52309 L 597.10889,727.60431 L 605.19011,732.65507 L 615.29164,735.68553 L 601.1495,751.84797 L 585.99722,759.92919 L 581.95661,769.02056 L 579.9363,764.97995 L 575.89569,769.02056 L 579.9363,774.07132 L 566.80432,774.07132 L 566.80432,759.92919 L 560.7434,754.87842 L 544.58096,758.91903 L 529.42867,762.95964 L 515.28654,765.9901 L 510.23578,771.04087 L 504.17486,780.13224 L 496.09364,780.13224 L 487.00227,779.12209 L 480.94135,773.06117 L 477.91089,761.94949 L 471.84998,760.93934 L 466.79922,750.83781 L 454.67739,745.78705 L 444.57586,744.7769 L 441.5454,739.72614 L 433.46418,739.72614 L 434.47433,733.66522 L 441.5454,733.66522 L 442.55555,726.59415 L 432.45403,723.5637 L 427.40327,721.54339 L 433.46418,717.50278 L 430.43372,710.43171 L 426.39311,708.41141 L 423.36266,711.44186 L 424.37281,715.48248 L 415.28144,720.53324 L 409.22052,721.54339 L 403.15961,720.53324 L 406.19006,731.64492 L 396.08854,728.61446 L 390.02762,727.60431 L 381.9464,727.60431 L 378.91594,727.60431 L 375.88549,717.50278 L 373.86518,709.42156 L 373.86518,702.35049 L 381.9464,697.29973 L 386.99716,701.34034 L 392.04793,700.33019 L 394.06823,696.28958 L 394.06823,689.21851 L 398.10884,685.1779 L 397.09869,678.10683 L 391.03778,678.10683 L 385.98701,673.05607 L 377.90579,671.03576 L 372.85503,671.03576 L 372.85503,678.10683 L 372.85503,682.14744 L 366.79411,679.11698 L 360.7332,666.99515 L 352.65198,671.03576 L 349.62152,676.08653 L 357.70274,677.09668 L 361.74335,687.1982 L 366.79411,690.22866 L 371.84488,708.41141 L 362.7535,700.33019 L 354.67228,696.28958 L 358.71289,693.25912 L 354.67228,683.15759 L 349.62152,686.18805 L 352.65198,689.21851 L 347.60122,692.24897 L 344.57076,687.1982 L 346.59106,683.15759 L 340.53015,681.13729 L 344.57076,677.09668 L 341.5403,675.07637 L 334.46923,676.08653 L 333.45908,682.14744 L 336.99461,687.1982 L 332.44893,687.1982 L 332.44893,691.74389 L 339.52,696.79465 L 342.04538,696.28958 L 345.58091,699.32003 L 351.64183,698.81496 L 353.15705,700.83526 L 360.22812,702.85557 L 365.27889,708.91648 L 369.3195,715.48247 L 372.34995,721.54339 L 366.79411,725.584 z "
       id="path3882"
       sodipodi:nodetypes="cccccccccccccccccccccccccccccccccccccccccccccccccccccccccccccccccccccccccccccc" />
    <text
       xml:space="preserve"
       style="font-size:12px;font-style:normal;font-variant:normal;font-weight:normal;font-stretch:normal;text-align:center;line-height:125%;writing-mode:lr-tb;text-anchor:middle;fill:black;fill-opacity:1;stroke:none;stroke-width:1px;stroke-linecap:butt;stroke-linejoin:miter;stroke-opacity:1;font-family:Arial"
       x="295.40381"
       y="834.24286"
       id="text10128"
       sodipodi:linespacing="125%"><tspan
         sodipodi:role="line"
         id="tspan10130"
         x="295.40381"
         y="834.24286">600 à 900 m</tspan></text>
    <text
       xml:space="preserve"
       style="font-size:12px;font-style:normal;font-variant:normal;font-weight:normal;font-stretch:normal;text-align:center;line-height:125%;writing-mode:lr-tb;text-anchor:middle;fill:black;fill-opacity:1;stroke:none;stroke-width:1px;stroke-linecap:butt;stroke-linejoin:miter;stroke-opacity:1;font-family:Arial"
       x="299.93311"
       y="813.03296"
       id="text10132"
       sodipodi:linespacing="125%"><tspan
         sodipodi:role="line"
         id="tspan10134"
         x="299.93311"
         y="813.03296">Plus de 900 m</tspan></text>
    <path
       style="opacity:1;fill:#ffdba9;fill-opacity:1;fill-rule:evenodd;stroke:none;stroke-width:1px;stroke-linecap:butt;stroke-linejoin:miter;stroke-opacity:1"
       d="M 151.42857,514.86218 C 154.04922,515.2794 157.40956,514.00716 159.54577,515.53082 C 161.3913,517.22412 163.2982,521.3387 165,517.36218 C 162.92734,515.46646 159.1427,512.89321 164.25585,513.84131 C 170.69438,513.94351 177.1329,514.0457 183.57143,514.14789 C 183.87657,516.55249 182.25271,521.54971 186.18616,519.07778 C 188.53612,518.82389 191.33232,520.66348 193.01666,522.33933 C 194.72563,523.35647 196.7564,529.09374 198.22341,526.56185 C 199.64655,522.72295 201.44918,528.81029 203.06418,529.99011 C 204.58508,534.62248 206.65733,525.71909 208.26723,529.86462 C 210.12787,533.12149 211.75297,534.05781 212.85715,529.86218 C 215.78781,531.45177 219.78159,531.8397 220.92428,535.45027 C 223.23524,539.30187 225.54619,543.15347 227.85715,547.00507 C 229.63813,543.69182 228.69984,539.88549 228.92857,536.29077 C 231.93208,537.72827 234.76789,539.87615 238.28266,539.14789 C 241.11267,539.19549 238.73884,544.20503 239.29659,546.41926 C 241.53639,546.9458 243.61757,542.04258 245.45612,543.42155 C 249.24087,547.88731 246.8738,539.2304 249.61238,542.45584 C 251.51378,545.17802 254.13189,544.893 256.93325,543.83914 C 257.12582,545.91629 256.27727,549.13421 256.07144,551.64789 C 258.53312,550.71082 261.1173,547.80612 263.34281,550.66215 C 267.02007,554.89499 263.79286,545.63322 267.08436,549.91406 C 269.04257,552.34415 271.42977,553.2346 274.39622,552.04617 C 277.03293,554.42211 279.29338,557.81161 281.78571,560.57648 C 280.00064,562.7994 277.33051,564.67134 276.07144,567.10286 C 275.28334,571.68789 276.97455,570.63689 279.42533,567.85923 C 282.95036,565.08145 281.89263,570.1599 281.22055,572.2812 C 280.80188,574.69583 276.45173,577.62737 281.16121,577.86831 C 283.28669,577.40271 284.35404,573.71377 286.07144,572.00507 C 287.15049,574.22511 286.11792,579.1113 289.77488,578.07648 C 291.6597,578.5569 287.4243,582.47684 286.92929,584.29471 C 283.91165,586.98397 289.02009,587.93389 290.58825,589.64159 C 292.94256,590.87398 296.41895,589.15108 296.56976,593.16424 C 298.88724,598.28376 298.7287,604.13075 299.61356,609.60192 C 299.14772,614.93195 299.58426,620.45111 297.06276,625.3503 C 294.35446,632.59345 295.77606,640.51574 295.71429,648.07648 C 293.92505,650.57295 292.36166,653.05637 295.39817,655.27403 C 297.69915,657.53853 293.38736,659.95212 292.58401,662.2866 C 289.74014,665.91898 290.52469,670.98675 289.38571,675.29358 C 290.01292,679.78306 286.83863,675.2659 285,674.14789 C 285.37841,677.15346 285.24987,679.83125 281.68079,680.28442 C 277.64174,682.27887 273.18193,683.53757 268.8349,684.44359 C 265.17896,683.95984 261.53401,683.38314 257.85715,683.07648 C 258.16072,679.73121 258.12097,677.07261 255,680.57648 C 255.41496,677.40063 255.27401,674.78068 251.36019,675.93359 C 249.69152,674.94325 245.84058,672.71632 247.36121,670.27855 C 247.47549,666.76154 251.33082,666.98558 253.82546,665.84894 C 255.74559,664.57223 258.5387,661.25957 255.30656,659.62796 C 251.76985,657.55672 256.12655,655.37028 257.42065,653.22854 C 257.19762,651.96876 252.23051,652.37773 250.16148,652.00507 C 247.26469,651.77514 244.45368,651.7855 242.54007,654.3099 C 240.29706,654.99706 240.76595,661.5063 239.82816,660.04002 C 239.49494,657.14319 238.22969,654.04877 238.47411,651.2744 C 240.49288,648.69059 242.05451,645.48811 244.3619,643.29493 C 248.57475,641.80846 253.25701,641.19736 256.40991,637.73427 C 258.27376,634.84458 261.03137,638.00258 263.60561,637.36218 C 267.01607,637.95086 263.98452,632.61472 262.52237,631.34966 C 259.66515,629.50597 260.63552,626.63913 261.25242,623.86677 C 261.69484,620.17018 263.08182,616.27812 262.96192,612.69791 C 260.99434,609.43055 258.32994,606.37416 256.78571,602.97862 C 256.48023,600.48711 258.14622,596.12023 254.05926,597.22587 C 248.72731,597.87819 244.39363,594.06182 239.35497,593.31003 C 236.46967,591.74174 234.16502,596.09596 232.34858,595.86173 C 231.10672,593.57838 231.48134,589.74383 228.24497,589.37444 C 225.27087,588.68283 223.21844,586.51838 221.07143,584.50507 C 216.66667,587.24314 212.26191,589.98122 207.85715,592.7193 C 208.1394,595.99976 208.26941,599.06417 204.42939,596.49511 C 201.41412,594.54452 200.31924,600.85062 197.12697,599.24767 C 195.97737,597.9267 198.98144,594.26143 199.44932,592.02757 C 200.99454,589.13592 201.87335,586.10875 201.42857,582.81243 C 200.88218,579.67575 204.81518,578.4699 206.39018,576.24765 C 209.20998,574.60876 207.60141,570.55459 204.31517,572.00507 C 200.90119,570.86939 200.12522,574.45462 198.57143,576.64789 C 194.28037,579.32317 190.13446,582.21064 186.07143,585.2193 C 182.85714,584.14789 179.64286,583.07648 176.42857,582.00507 C 177.62257,580.06512 182.74873,578.52171 180.9535,576.2803 C 178.31501,573.94651 177.84037,571.76997 181.15394,569.86874 C 184.10263,567.00942 187.05131,564.15009 190,561.29077 C 186.83691,561.83869 185.17201,559.86241 183.11469,558.02665 C 178.56219,557.20927 182.21296,554.76104 184.93635,554.86218 C 188.19061,556.13722 189.31668,552.27126 191.51431,551.39498 C 194.18891,551.73781 197.40781,553.99394 199.07316,550.78901 C 200.80986,548.44441 204.609,553.31704 206.07143,552.26432 C 207.19621,548.91427 203.56222,548.14672 201.49378,546.52958 C 199.26086,544.19632 196.10959,544.96099 193.21429,544.86218 C 192.32229,542.37155 196.72422,538.75101 192.5519,538.25178 C 187.91365,536.09901 182.57343,536.15434 177.56365,535.57648 C 174.14527,536.72675 173.51075,533.21627 172.14285,530.93359 C 174.19601,527.8268 170.11839,526.53868 168.39388,524.55252 C 166.30386,522.46629 164.16617,520.50753 161.00305,521.29077 C 157.47793,522.04139 155.74996,518.10872 153.16054,516.42096 C 152.58322,515.90137 152.0059,515.38178 151.42857,514.86218 z "
       id="path13688" />
    <path
       style="opacity:1;fill:#ffb757;fill-opacity:1;fill-rule:evenodd;stroke:none;stroke-width:1px;stroke-linecap:butt;stroke-linejoin:miter;stroke-opacity:1"
       d="M 266.68027,554.35698 L 269.71073,558.39759 L 267.69042,560.92297 L 263.64981,559.40774 L 259.6092,560.41789 L 260.61936,562.94327 L 258.59905,571.02449 L 254.05337,575.57018 L 255.56859,578.09556 L 253.54829,584.15648 L 257.5889,589.20724 L 256.07367,591.73262 L 247.99245,590.21739 L 238.396,583.6514 L 231.32493,578.60064 L 227.7894,579.61079 L 226.27417,574.56003 L 221.72848,574.56003 L 220.71833,580.11587 L 212.13203,583.6514 L 205.56604,590.72247 L 202.03051,588.70216 L 207.08127,583.14633 L 212.63711,578.09556 L 216.67772,578.09556 L 214.15234,571.02449 L 220.71833,570.01434 L 222.73864,565.97373 L 218.19295,562.4382 L 210.11173,562.4382 L 203.54574,564.4585 L 196.97975,567.48896 L 192.93914,575.57018 L 186.87822,579.10571 L 185.36299,575.0651 L 193.44421,568.49911 L 193.94929,560.92297 L 190.91883,558.39759 L 201.02036,557.38744 L 209.60665,555.36713 L 209.60665,551.32652 L 205.56604,545.2656 L 198.49498,540.21484 L 201.52543,539.20469 L 207.08127,543.2453 L 207.08127,538.19454 L 209.60665,541.22499 L 214.65742,539.70977 L 221.72848,540.71992 L 220.71833,548.80114 L 226.27417,551.8316 L 231.32493,548.29606 L 239.40615,549.81129 L 249.0026,553.34682 L 266.68027,554.35698 z "
       id="path15479" />
    <path
       style="fill:#ff9200;fill-opacity:1;fill-rule:evenodd;stroke:none;stroke-width:1px;stroke-linecap:butt;stroke-linejoin:miter;stroke-opacity:1"
       d="M 229.30463,557.38744 L 225.26402,563.95343 L 246.47722,581.6311 L 250.51783,579.61079 L 244.45692,574.05495 L 244.45692,567.99404 L 247.99245,563.95343 L 251.02291,562.94327 L 252.53814,558.90266 L 246.47722,558.90266 L 238.90108,559.40774 L 229.30463,557.38744 z "
       id="path16366" />
    <path
       style="opacity:1;fill:#ffb757;fill-opacity:1;fill-rule:evenodd;stroke:none;stroke-width:1px;stroke-linecap:butt;stroke-linejoin:miter;stroke-opacity:1"
       d="M 280.82241,605.36968 L 273.24626,602.33922 L 270.21581,595.26816 L 264.65997,593.24785 L 264.15489,600.82399 L 267.69042,608.90521 L 271.73103,615.47121 L 266.68027,616.98644 L 270.72088,623.55243 L 279.30718,627.08796 L 281.32748,632.6438 L 275.77165,635.16918 L 266.1752,641.2301 L 249.0026,645.77578 L 263.14474,645.77578 L 270.72088,647.79609 L 270.72088,651.8367 L 264.65997,659.41284 L 264.65997,665.97883 L 276.27672,666.98899 L 281.83256,667.49406 L 282.33764,648.80624 L 288.39855,643.75548 L 287.89348,629.61334 L 286.88332,617.99659 L 286.88332,612.44075 L 280.82241,605.36968 z "
       id="path17253" />
    <path
       style="fill:#ff9200;fill-opacity:1;fill-rule:evenodd;stroke:none;stroke-width:1px;stroke-linecap:butt;stroke-linejoin:miter;stroke-opacity:1"
       d="M 278.8021,638.19964 L 281.32748,643.2504 L 276.27672,647.79609 L 273.24626,643.2504 L 278.8021,638.19964 z "
       id="path18140" />
    <path
       style="fill:#ff9200;fill-opacity:1;fill-rule:evenodd;stroke:none;stroke-width:1px;stroke-linecap:butt;stroke-linejoin:miter;stroke-opacity:1"
       d="M 279.30718,611.93567 L 278.8021,621.02705 L 275.26657,621.02705 L 272.74119,617.49151 L 279.30718,611.93567 z "
       id="path18142" />
    <path
       style="opacity:1;fill:#ffdba9;fill-opacity:1;fill-rule:evenodd;stroke:none;stroke-width:1px;stroke-linecap:butt;stroke-linejoin:miter;stroke-opacity:1"
       d="M 363.57143,449.50504 L 365.71429,457.36218 L 375,460.21932 L 387.85715,473.07647 L 397.85714,478.79075 L 397.85714,483.79075 L 402.85714,480.21932 L 407.85714,480.21932 L 404.28571,489.50504 L 398.57143,497.36218 L 404.28571,504.50504 L 405,495.93361 L 411.42857,499.50504 L 412.85714,508.07647 L 415,501.6479 L 417.85714,505.21932 L 418.57143,513.07647 L 425,507.36218 L 422.14286,513.79075 L 420,523.07647 L 422.85714,532.36218 L 419.28571,544.50504 L 423.57143,547.36218 L 423.57143,557.36218 L 432.14286,565.21932 L 435,560.21932 L 430,552.36218 L 435,552.36218 L 439.28571,557.36218 L 449.28571,555.93361 L 447.14286,560.93361 L 454.28571,569.50504 L 445.71429,567.36218 L 440,563.79075 L 432.85714,571.6479 L 442.85714,578.79075 L 440.71429,589.50504 L 440.71429,595.21932 L 446.42857,595.93361 L 455,606.6479 L 455,617.36218 L 463.57143,620.21933 L 467.14286,628.79075 L 479.28571,638.79075 L 482.14286,647.36218 L 477.14286,655.21933 L 485,653.79075 L 490,658.79075 L 494.28571,670.93361 L 505,677.36218 L 519.28571,686.6479 L 518.57143,693.79075 L 518.57143,704.50504 L 531.42857,708.79075 L 538.57143,715.21933 L 555,718.07647 L 564.28571,724.50504 L 575,724.50504 L 571.42857,730.21933 L 571.42857,734.50504 L 559.28571,734.50504 L 559.28571,738.79075 L 550,733.79075 L 550,739.50504 L 545.71429,733.07647 L 544.28571,743.07647 L 540,735.93361 L 539.28571,742.36218 L 536.42857,744.50504 L 534.28571,735.21933 L 530.71429,735.21933 L 525,734.50504 L 520,743.07647 L 518.57143,736.6479 L 512.85714,740.21933 L 508.57143,738.79075 L 516.42857,732.36218 L 511.42857,730.93361 L 515.71429,725.21933 L 509.28571,723.07647 L 509.28571,730.21933 L 500,732.36218 L 505,723.07647 L 506.42857,714.50504 L 496.42857,708.79075 L 491.42857,708.79075 L 491.42857,715.93361 L 488.57143,721.6479 L 483.57143,728.79075 L 479.28571,721.6479 L 475,715.93361 L 474.28571,709.50504 L 485,703.07647 L 486.42857,698.07647 L 477.14286,698.07647 L 474.28571,703.79075 L 467.85714,705.93361 L 466.42857,701.6479 L 465,695.21933 L 482.14286,688.07647 L 490,684.50504 L 485,680.21933 L 479.28571,683.79075 L 469.28571,685.21933 C 469.28571,685.21933 457.14286,691.6479 454.28571,692.36218 C 451.42857,693.07647 447.85714,689.50504 447.85714,689.50504 L 458.57143,683.79075 L 462.85714,680.21933 L 449.28571,679.50504 L 442.14286,682.36218 L 460,675.21933 L 468.57143,670.21933 L 468.57143,662.36218 L 454.28571,670.21933 L 440,675.93361 L 443.57143,671.6479 L 455,663.07647 L 436.42857,669.50504 L 430.71429,665.93361 L 441.42857,660.21933 L 455,653.79075 L 460.71429,650.93361 L 449.28571,650.93361 L 435,660.21933 L 425,662.36218 L 427.85714,655.93361 L 420.71429,651.6479 L 429.28571,647.36218 L 447.14286,643.79075 L 441.42857,637.36218 L 425.71429,644.50504 L 412.85714,648.79075 C 412.85714,648.79075 400.71429,638.79075 403.57143,638.79075 C 406.42857,638.79075 416.42857,638.07647 416.42857,638.07647 L 424.28571,627.36218 L 412.85714,633.79075 L 399.28571,635.21933 L 405.71429,630.93361 L 396.42857,630.93361 L 404.28571,625.21933 L 410,622.36218 L 399.28571,623.79075 L 402.85714,615.21933 L 396.42857,621.6479 L 390.71429,625.21933 L 382.85714,625.21933 L 389.28571,616.6479 L 390,610.93361 L 385,610.93361 L 379.28571,618.07647 L 372.85714,616.6479 L 370.71429,612.36218 L 382.85714,608.07647 L 388.57143,600.93361 L 377.85714,604.50504 L 372.85714,598.79075 L 368.57143,596.6479 L 373.57143,589.50504 L 365,592.36218 L 356.42857,594.50504 L 359.28571,590.93361 L 355.71429,587.36218 L 364.28571,585.93361 L 369.28571,582.36218 L 356.42857,582.36218 L 349.28571,583.07647 L 341.42857,577.36218 L 339.28571,573.07647 L 340.71429,569.50504 L 356.42857,567.36218 L 347.14286,564.50504 L 335.71429,569.50504 L 327.85714,566.6479 L 331.42857,562.36218 C 331.42857,562.36218 338.57143,560.21932 335.71429,559.50504 C 332.85714,558.79075 321.42857,560.21932 321.42857,560.21932 L 314.28571,556.6479 L 310.71429,545.93361 L 320,546.6479 L 327.14286,545.21932 L 326.42857,538.07647 L 315.71429,530.93361 L 314.28571,525.21932 L 323.57143,525.21932 L 330.71429,526.6479 L 322.85714,520.93361 L 317.85714,513.79075 L 322.85714,512.36218 L 341.42857,519.50504 L 342.85714,514.50504 L 350.71429,512.36218 L 346.42857,508.07647 L 337.14286,508.07647 L 327.14286,506.6479 L 331.42857,503.79075 L 320.71429,503.79075 L 320.71429,498.07647 L 320.71429,490.21932 L 325,489.50504 L 334.28571,488.79075 L 345.71429,488.79075 L 337.85714,482.36218 L 350.71429,482.36218 L 357.85714,482.36218 L 351.42857,476.6479 L 345,475.21932 L 353.57143,472.36218 L 352.85714,468.07647 L 347.85714,463.79075 L 342.85714,465.21932 L 335,460.93361 L 340.71429,458.07647 L 342.14286,448.79075 L 344.28571,446.6479 L 345,448.07647 L 345,440.21932 L 348.57143,438.07647 L 351.42857,446.6479 L 354.28571,439.50504 L 357.85714,445.93361 L 363.57143,449.50504 z "
       id="path23462"
       sodipodi:nodetypes="cccc" />
    <path
       style="opacity:1;fill:#ffb757;fill-opacity:1;fill-rule:evenodd;stroke:none;stroke-width:1px;stroke-linecap:butt;stroke-linejoin:miter;stroke-opacity:1"
       d="M 414.28571,520.21932 L 410.71429,542.36218 L 416.42857,563.07647 L 422.14286,575.21932 L 432.85714,587.36218 L 435.71429,603.07647 L 445.71429,608.07647 L 453.57143,625.93361 L 460,625.93361 L 474.28571,642.36218 C 474.28571,642.36218 480,638.79075 479.28571,647.36218 C 478.57143,655.93361 477.14286,655.93361 477.14286,655.93361 L 486.42857,658.07647 L 488.57143,668.79075 L 484.28571,672.36218 L 478.57143,669.50504 L 478.57143,661.6479 L 475,655.21933 L 465,645.21933 L 467.85714,639.50504 L 456.42857,633.07647 L 447.14286,625.93361 L 442.85714,615.21933 L 434.28571,613.79075 L 434.28571,606.6479 L 427.85714,604.50504 L 429.28571,595.93361 L 420,587.36218 L 412.14286,581.6479 L 405,580.93361 L 413.57143,577.36218 L 409.28571,567.36218 L 410,562.36218 L 407.14286,555.21932 L 397.14286,545.93361 L 392.14286,540.21932 L 387.85714,531.6479 L 392.85714,528.07647 L 388.57143,523.07647 L 383.57143,514.50504 L 391.42857,513.79075 L 382.85714,507.36218 L 379.28571,498.79075 L 375.71429,490.21932 L 384.28571,491.6479 L 387.85714,501.6479 L 392.14286,505.93361 L 397.85714,514.50504 C 397.85714,514.50504 396.42857,508.79075 399.28571,508.79075 C 402.14286,508.79075 403.57143,513.79075 403.57143,513.79075 L 409.28571,510.93361 L 414.28571,520.21932 z "
       id="path25236" />
    <path
       style="fill:#ffb757;fill-opacity:1;fill-rule:evenodd;stroke:none;stroke-width:1px;stroke-linecap:butt;stroke-linejoin:miter;stroke-opacity:1"
       d="M 505.71429,683.79075 L 498.57143,680.93361 L 489.28571,685.21933 L 487.85714,693.07647 L 495.71429,686.6479 L 505.71429,683.79075 z "
       id="path26123" />
    <path
       style="fill:#ffb757;fill-opacity:1;fill-rule:evenodd;stroke:none;stroke-width:1px;stroke-linecap:butt;stroke-linejoin:miter;stroke-opacity:1"
       d="M 510.71429,688.79075 L 514.28571,706.6479 L 515,712.36218 L 531.42857,713.79075 L 540.71429,722.36218 L 556.42857,722.36218 L 556.42857,726.6479 L 545,726.6479 L 543.57143,731.6479 L 536.42857,725.93361 L 532.85714,726.6479 L 524.28571,723.07647 L 517.85714,719.50504 L 508.57143,710.21933 L 502.85714,708.07647 L 502.14286,701.6479 L 510.71429,701.6479 L 507.85714,694.50504 L 510.71429,688.79075 z "
       id="path27010" />
  </g>
</svg>
